[AccurateRip ID: 001c685f-012daabc-c30cc30e] found.
Track   [  CRC   |   V2   ] Status
 01     [5d2a707c|051047f1] (09+03/12) Accurately ripped
 02     [e3f1af76|0be65772] (09+03/12) Accurately ripped
 03     [13bb37c7|0cb4c7e1] (09+03/12) Accurately ripped
 04     [4aa72ae2|ae643409] (09+03/12) Accurately ripped
 05     [f7b5a829|d38db089] (09+03/12) Accurately ripped
 06     [35a7b52a|e731f22b] (09+03/12) Accurately ripped
 07     [d2ce8597|3725894c] (09+03/12) Accurately ripped
 08     [b6e836ff|a9b756f4] (09+03/12) Accurately ripped
 09     [bd105cdf|2ba4e941] (09+03/12) Accurately ripped
 10     [ccc0f53c|f756f744] (09+03/12) Accurately ripped
 11     [1f280d54|30d9b699] (09+03/12) Accurately ripped
 12     [5aed658e|1460aa24] (09+03/12) Accurately ripped
 13     [bfc7bf6c|eeb14d13] (09+03/12) Accurately ripped
 14     [8aa4b557|65b5af3f] (09+03/12) Accurately ripped




Everything But The Girl - Missing (Todd Terry Club Mix)
Me & My - Baby Boy
Leila K - Electric
Oasis - Wonderwall
Skee-Lo - I Wish
Herbie - Rainbow Child
The Mighty Dub Cats The - Magic Carpet Ride
Simply Red - Fairground
Backstreet Boys - We've Got It Going On
La Bouche - I Love To Love
Blur - The Universal
Hälsa - Number One
3rd Nation - Real Love
Fun Factory - Doh Wah Diddy


WavPack image with embedded log, cue and jpg.

Highres scans included.

Tip : Use Foobar or Aimp3